<svg viewBox="0 0 1280 800" xmlns="http://www.w3.org/2000/svg"><path d="m544.6 235.2a11.5 11.5 0 0 0 -8.1-3.5h-255.2a11.6 11.6 0 0 0 -11.5 11.5v202.5a11.3 11.3 0 0 0 3.4 8.1 11.4 11.4 0 0 0 8.1 3.4l255.1.2h.1a11.2 11.2 0 0 0 8-3.4 11.4 11.4 0 0 0 3.4-8.1l.2-202.7a11.6 11.6 0 0 0 -3.5-8zm-7.7 210.7c0 .2-.4.5-.5.5h-255.2c-.2 0-.5-.4-.5-.6v-172.6h256.3zm-4.6-193.5a6.5 6.5 0 0 1 -6.5 6.5l-179.6-.2a6.5 6.5 0 1 1 0-12.9h179.6a6.5 6.5 0 0 1 6.5 6.6zm-205.3-.3a4.4 4.4 0 1 1 -4.4-4.4 4.4 4.4 0 0 1 4.4 4.4zm-13 0a4.4 4.4 0 1 1 -4.4-4.4 4.4 4.4 0 0 1 4.4 4.4zm-17.4-4.4a4.4 4.4 0 0 1 0 8.8 4.4 4.4 0 0 1 0-8.8z" fill="#707071"/><g fill="#404343"><path d="m310.7 326.6-5.4-20h3.6l3.4 14.9h.1l3.8-14.9h3l3.7 14.9h.2l3.4-14.9h3.6l-5.4 20h-3l-4-14.7h-.1l-3.9 14.7z"/><path d="m331 319.6v-1.6c0-4.3 2.6-7.1 6.6-7.1s6.7 2.9 6.7 7.3v1.4h-10.1v.4c0 2.6 1.4 4.3 3.6 4.3a3 3 0 0 0 3.2-2.1h3.1c-.5 2.5-2.5 4.7-6.3 4.7s-6.8-2.7-6.8-7.3zm10.1-2.2c0-2.2-1.4-3.9-3.4-3.9s-3.5 1.7-3.5 3.9z"/><path d="m347.8 305.6h3.3v21h-3.3z"/><path d="m354.7 318.1c0-4.2 2.5-7.2 6.7-7.2s6 2.4 6.1 5.1h-3a3 3 0 0 0 -3-2.4c-2.2 0-3.6 1.7-3.6 4.6v1.3c0 2.9 1.4 4.7 3.7 4.7a2.6 2.6 0 0 0 2.9-2.2h3.1c-.4 3.1-2.6 4.9-6.2 4.9s-6.7-3-6.7-7.4z"/><path d="m384 318.2v1.3c0 4.4-2.4 7.4-6.9 7.4s-6.9-3-6.9-7.4v-1.3c0-4.2 2.4-7.3 6.9-7.3s6.9 3.1 6.9 7.3zm-10.5.1v1.2c0 2.7 1.2 4.8 3.6 4.8s3.6-2 3.6-4.8v-1.2c0-2.8-1.2-4.8-3.6-4.8s-3.6 2-3.6 4.8z"/><path d="m387.5 311.2h3.2v2h.1a4.2 4.2 0 0 1 4-2.3c2.4 0 3.9 1 4.4 2.6h.2c.5-1.3 2.1-2.6 4.7-2.6s5.1 2.1 5.1 5.2v10.5h-3.2v-9.7c0-2-1.1-3.2-3-3.2s-3.1 1.3-3.1 3.4v9.5h-3.1v-9.5c0-2.3-1.3-3.4-3.1-3.4s-3 1.1-3 3.4v9.5h-3.2z"/><path d="m412.6 319.6v-1.6c0-4.3 2.6-7.1 6.7-7.1s6.6 2.9 6.6 7.3v1.4h-10.1v.4c0 2.6 1.4 4.3 3.7 4.3a3 3 0 0 0 3.1-2.1h3.1c-.4 2.5-2.5 4.7-6.3 4.7s-6.8-2.7-6.8-7.3zm10.1-2.2c0-2.2-1.3-3.9-3.4-3.9s-3.5 1.7-3.5 3.9z"/><path d="m428 330.9 1.1-7.3h3.2l-1.9 7.3z"/><path d="m440 326.6 6.9-20h3.7l6.9 20h-3.5l-1.8-5.5h-7l-1.8 5.5zm8.6-16.5-2.7 8.5h5.5l-2.6-8.5z"/><path d="m459.9 305.6h3.3v21h-3.3z"/><path d="m469.2 305.5a1.8 1.8 0 0 1 1.9 1.9 1.9 1.9 0 0 1 -3.8 0 1.8 1.8 0 0 1 1.9-1.9zm-1.6 5.7h3.2v15.4h-3.2z"/><path d="m474.5 318.1c0-4.2 2.5-7.2 6.7-7.2s6 2.4 6.1 5.1h-3.1a2.8 2.8 0 0 0 -2.9-2.4c-2.2 0-3.6 1.7-3.6 4.6v1.3c0 2.9 1.4 4.7 3.6 4.7a2.7 2.7 0 0 0 3-2.2h3.1c-.4 3.1-2.6 4.9-6.2 4.9s-6.7-3-6.7-7.4z"/><path d="m490 319.6v-1.6c0-4.3 2.6-7.1 6.6-7.1s6.7 2.9 6.7 7.3v1.4h-10.1v.4c0 2.6 1.4 4.3 3.6 4.3a3 3 0 0 0 3.2-2.1h3.1c-.5 2.5-2.5 4.7-6.3 4.7s-6.8-2.7-6.8-7.3zm10.1-2.2c0-2.2-1.4-3.9-3.4-3.9s-3.5 1.7-3.5 3.9z"/><path d="m508.6 323.2a1.9 1.9 0 1 1 -2 1.8 1.9 1.9 0 0 1 2-1.8zm1.8-16.6-.4 14h-2.8l-.4-14z"/><path d="m294.8 362.6v-20h3.3v20z"/><path d="m303.5 343.4h3.2v3.8h3v2.6h-3v8.2c0 1.7.6 2.2 2.4 2.2h.7v2.5h-1.5c-3.8 0-4.8-1.3-4.8-4.4v-8.5h-2.2v-2.6h2.2z"/><path d="m320.8 341.5a1.9 1.9 0 1 1 0 3.7 1.8 1.8 0 0 1 -1.9-1.8 1.8 1.8 0 0 1 1.9-1.9zm-1.6 5.7h3.2v15.4h-3.2z"/><path d="m332.1 346.9c3.7 0 5.7 2 5.7 4.7h-2.9c-.1-1.1-.8-2.3-2.9-2.3s-2.8.8-2.8 2.1 2.2 1.9 4 2.2 5.1 1.4 5.1 4.4-2.5 4.9-6.4 4.9-6.1-1.8-6.1-4.5h3.2c.2 1.2 1.3 2.1 3.1 2.1s3-1 3-2.1-1.8-1.9-3.9-2.3-5.1-1.6-5.1-4.4 2.9-4.8 6-4.8z"/><path d="m351.5 351h2c2.1 0 3.5-1.3 3.5-3.1s-1.4-3-3.4-3a3.2 3.2 0 0 0 -3.4 3h-3.1c.1-3 2.3-5.7 6.5-5.7s6.6 2.2 6.7 5.2a4.7 4.7 0 0 1 -3.6 4.7 4.9 4.9 0 0 1 4.3 4.9c0 3.5-3.3 6-7.5 6s-6.8-2.7-6.9-5.9h3.1a3.6 3.6 0 0 0 3.9 3.2c2.6 0 4-1.5 4-3.4s-1.5-3.3-4-3.3h-2.1z"/><path d="m367.2 357.4c.2 1.9 1.8 2.9 3.9 2.9a4.1 4.1 0 0 0 4.1-4.2 3.9 3.9 0 0 0 -4.1-4.1 4 4 0 0 0 -3.9 2.3h-2.9l1-11.7h11.7v2.8h-9l-.6 5.7h.1a5.6 5.6 0 0 1 4.3-1.8 6.4 6.4 0 0 1 6.6 6.7c0 4.2-3.2 7-7.4 7s-6.8-2.6-6.9-5.6z"/><path d="m397.7 349.4h.1v-7.8h3.2v21h-3.1v-2.3h-.1a4.8 4.8 0 0 1 -4.5 2.5c-3.9 0-6.1-2.8-6.1-7.2v-1.4c0-4.3 2.3-7.2 6.1-7.2a5 5 0 0 1 4.4 2.4zm-7.2 4.9v1.2c0 3.1 1.5 4.7 3.6 4.7s3.7-1.7 3.7-4.7v-1.2c0-2.9-1.4-4.7-3.7-4.7s-3.6 1.6-3.6 4.7z"/><path d="m404.6 355.6v-1.6c0-4.3 2.6-7.1 6.6-7.1s6.7 2.9 6.7 7.3v1.4h-10.1v.4c0 2.6 1.4 4.3 3.6 4.3a3 3 0 0 0 3.2-2.1h3.1c-.5 2.5-2.5 4.7-6.3 4.7s-6.8-2.7-6.8-7.3zm10.1-2.2c0-2.2-1.4-3.9-3.4-3.9s-3.5 1.7-3.5 3.9z"/><path d="m431.3 362.3v-2.3h-.1a4.7 4.7 0 0 1 -4.4 2.5c-3.6 0-6.1-2.6-6.1-7.3v-1.1c0-4.6 2.5-7.1 6.1-7.1a4.6 4.6 0 0 1 4.4 2.4h.1v-2.2h3.2v15.2c0 4.1-3.4 5.9-6.9 5.9s-6.2-2-6.5-4.6h3.2c.2 1.2 1.5 2.1 3.3 2.1s3.7-1.3 3.7-3.5zm-7.3-8v.9c0 3 1.4 4.7 3.7 4.7s3.6-1.7 3.6-4.7v-.9c0-2.9-1.4-4.7-3.6-4.7s-3.7 1.7-3.7 4.7z"/><path d="m438.7 347.2h3.2v2h.1a3.9 3.9 0 0 1 3.7-2.3h1.1v2.9h-1.4c-2.6 0-3.4 1.6-3.4 3.7v9.1h-3.3z"/><path d="m448.7 355.6v-1.6c0-4.3 2.6-7.1 6.7-7.1s6.6 2.9 6.6 7.3v1.4h-10v.4c0 2.6 1.4 4.3 3.6 4.3a3.1 3.1 0 0 0 3.2-2.1h3c-.4 2.5-2.4 4.7-6.3 4.7s-6.8-2.7-6.8-7.3zm10.1-2.2c0-2.2-1.3-3.9-3.4-3.9s-3.4 1.7-3.4 3.9z"/><path d="m464.8 355.6v-1.6c0-4.3 2.6-7.1 6.7-7.1s6.6 2.9 6.6 7.3v1.4h-10v.4c0 2.6 1.4 4.3 3.6 4.3a2.9 2.9 0 0 0 3.1-2.1h3.1c-.4 2.5-2.5 4.7-6.3 4.7s-6.8-2.7-6.8-7.3zm10.1-2.2c0-2.2-1.3-3.9-3.4-3.9s-3.4 1.7-3.4 3.9z"/><path d="m487 346.9c3.7 0 5.7 2 5.7 4.7h-2.9c-.1-1.1-.8-2.3-2.9-2.3s-2.8.8-2.8 2.1 2.2 1.9 3.9 2.2 5.2 1.4 5.2 4.4-2.5 4.9-6.4 4.9-6.1-1.8-6.1-4.5h3.2c.1 1.2 1.2 2.1 3.1 2.1s3-1 3-2.1-1.8-1.9-3.9-2.3-5.1-1.6-5.1-4.4 2.9-4.8 6-4.8z"/><path d="m504.1 341.5a1.9 1.9 0 1 1 0 3.7 1.9 1.9 0 1 1 0-3.7zm-1.6 5.7h3.3v15.4h-3.3z"/><path d="m510 347.2h3.2v2.1h.2a4.8 4.8 0 0 1 4.5-2.4c3.1 0 5.4 2 5.4 5.8v9.9h-3.2v-9.2c0-2.5-1.5-3.7-3.4-3.7s-3.4 1.7-3.4 3.7v9.2h-3.3z"/><path d="m344.9 393.1c.2 1.7 1.7 3.2 4.5 3.2s4.2-1.2 4.2-3.1-1.1-2.4-3.2-2.9l-3.3-.8c-2.5-.6-4.9-2.1-4.9-5.4s3.4-5.9 7.3-5.9 7.1 2.1 7.2 5.8h-3.2c-.2-1.7-1.5-3.1-4.1-3.1s-3.8 1.1-3.8 3 .9 2.2 2.7 2.6l3.3.8c3 .8 5.3 2.2 5.3 5.6s-3.2 6.1-7.7 6.1-7.4-3.2-7.5-5.9z"/><path d="m362 377.5a1.9 1.9 0 1 1 -2 1.9 1.9 1.9 0 0 1 2-1.9zm-1.6 5.7h3.2v15.4h-3.2z"/><path d="m367.9 383.2h3.2v2.1h.1a4.8 4.8 0 0 1 4.5-2.4c3.2 0 5.4 2 5.4 5.8v9.9h-3.2v-9.2c0-2.5-1.4-3.7-3.4-3.7s-3.4 1.7-3.4 3.7v9.2h-3.2z"/><path d="m395 398.3v-2.3h-.1a4.7 4.7 0 0 1 -4.4 2.5c-3.6 0-6-2.6-6-7.3v-1.1c0-4.6 2.4-7.1 6-7.1a4.6 4.6 0 0 1 4.4 2.4h.2v-2.2h3.1v15.2c0 4.1-3.4 5.9-6.9 5.9s-6.2-2-6.5-4.6h3.2c.3 1.2 1.5 2.1 3.4 2.1a3.3 3.3 0 0 0 3.6-3.5zm-7.2-8v.9c0 3 1.3 4.7 3.6 4.7s3.6-1.7 3.6-4.7v-.9c0-2.9-1.4-4.7-3.6-4.7s-3.6 1.7-3.6 4.7z"/><path d="m406.6 398.9c-3 0-5-1.8-5-4.7s1.9-4.5 5.4-4.5h4v-1.5c0-1.8-1.1-2.7-2.9-2.7s-2.8.9-2.9 2.3h-3.1c.2-2.7 1.9-4.9 6.1-4.9s6 1.7 6 5.2v10.5h-3.1v-1.9h-.1a4.8 4.8 0 0 1 -4.4 2.2zm4.4-5.4v-1.7h-3.4c-1.9 0-2.8.9-2.8 2.2a2.5 2.5 0 0 0 2.8 2.4c1.9 0 3.4-1.2 3.4-2.9z"/><path d="m421.6 396.5h-.2v7.3h-3.2v-20.6h3.2v2.2h.1a4.8 4.8 0 0 1 4.5-2.4c3.5 0 5.9 2.6 5.9 7.2v1.4c0 4.6-2.4 7.3-6 7.3a4.8 4.8 0 0 1 -4.3-2.4zm7-5.1v-1.1c0-3-1.3-4.7-3.5-4.7s-3.7 1.8-3.7 4.7v1.1c0 2.9 1.4 4.8 3.8 4.8s3.4-1.7 3.4-4.8z"/><path d="m448.6 390.2v1.3c0 4.4-2.4 7.4-6.9 7.4s-6.9-3-6.9-7.4v-1.3c0-4.2 2.5-7.3 6.9-7.3s6.9 3.1 6.9 7.3zm-10.5.1v1.2c0 2.7 1.2 4.8 3.6 4.8s3.6-2 3.6-4.8v-1.2c0-2.8-1.2-4.8-3.6-4.8s-3.6 2-3.6 4.8z"/><path d="m452.1 383.2h3.3v2h.1a3.8 3.8 0 0 1 3.7-2.3h1.1v2.9h-1.4c-2.6 0-3.5 1.6-3.5 3.7v9.1h-3.3z"/><path d="m462.2 391.6v-1.6c0-4.3 2.6-7.1 6.6-7.1s6.7 2.9 6.7 7.3v1.4h-10.1v.4c0 2.6 1.4 4.3 3.6 4.3a3 3 0 0 0 3.2-2.1h3.1c-.5 2.5-2.5 4.7-6.3 4.7s-6.8-2.7-6.8-7.3zm10.1-2.2c0-2.2-1.4-3.9-3.4-3.9s-3.5 1.7-3.5 3.9z"/><path d="m69.5 729.6 6.8-20h3.8l6.8 20h-3.5l-1.8-5.5h-7l-1.8 5.5zm8.6-16.5-2.7 8.4h5.5l-2.7-8.4z"/><path d="m89.4 708.6h3.2v21h-3.2z"/><path d="m98.6 708.5a1.9 1.9 0 1 1 0 3.7 1.9 1.9 0 1 1 0-3.7zm-1.6 5.6h3.3v15.5h-3.3z"/><path d="m103.9 721.1c0-4.2 2.5-7.2 6.7-7.2s6 2.4 6.2 5.1h-3.1a3 3 0 0 0 -2.9-2.4c-2.3 0-3.6 1.7-3.6 4.6v1.3c0 2.9 1.4 4.7 3.6 4.7a2.7 2.7 0 0 0 3-2.2h3.1c-.5 3-2.7 4.9-6.3 4.9s-6.7-3.1-6.7-7.4z"/><path d="m119.4 722.6v-1.6c0-4.3 2.6-7.1 6.7-7.1s6.6 2.9 6.6 7.2v1.5h-10.1v.4c0 2.6 1.4 4.3 3.7 4.3a3 3 0 0 0 3.1-2.1h3.1c-.4 2.5-2.5 4.7-6.3 4.7s-6.8-2.7-6.8-7.3zm10.1-2.2c0-2.2-1.3-3.9-3.4-3.9s-3.5 1.7-3.5 3.9z"/><path d="m149.8 708.6c-1.9 2.2-3.7 7.2-3.7 12.5a25.4 25.4 0 0 0 3.6 13.1h-2.9c-2.3-2.9-4-7.5-4-13.1s1.5-9.3 4.1-12.5z"/><path d="m154.5 724.1c.1 1.7 1.6 3.2 4.5 3.2s4.1-1.2 4.1-3.1-1-2.4-3.2-2.9l-3.3-.8c-2.5-.6-4.9-2.1-4.9-5.4s3.4-5.9 7.3-5.9 7.1 2.1 7.2 5.8h-3.2c-.2-1.7-1.5-3.1-4.1-3.1s-3.8 1.1-3.8 3 .9 2.2 2.8 2.6l3.2.8c3 .8 5.3 2.2 5.3 5.6s-3.2 6.1-7.7 6.1-7.4-3.2-7.5-5.9z"/><path d="m171.5 708.5a1.9 1.9 0 1 1 0 3.7 1.8 1.8 0 0 1 -1.9-1.8 1.8 1.8 0 0 1 1.9-1.9zm-1.6 5.6h3.2v15.5h-3.2z"/><path d="m177.4 714.1h3.2v2.2h.1a4.9 4.9 0 0 1 4.5-2.4c3.2 0 5.4 2 5.4 5.8v9.9h-3.2v-9.3c0-2.5-1.4-3.6-3.4-3.6s-3.4 1.7-3.4 3.7v9.2h-3.2z"/><path d="m204.5 729.2v-2.2h-.1a4.7 4.7 0 0 1 -4.4 2.5c-3.6 0-6-2.6-6-7.3v-1.1c0-4.6 2.4-7.2 6-7.2a5 5 0 0 1 4.5 2.5h.1v-2.3h3.1v15.3c0 4.1-3.4 5.9-6.9 5.9s-6.2-2-6.5-4.6h3.2a3.3 3.3 0 0 0 3.4 2.1 3.3 3.3 0 0 0 3.6-3.6zm-7.2-7.9v.9c0 3 1.3 4.7 3.7 4.7s3.5-1.7 3.5-4.7v-.9c0-2.9-1.4-4.7-3.5-4.7s-3.7 1.7-3.7 4.7z"/><path d="m216.1 729.9c-3 0-5-1.8-5-4.7s1.9-4.5 5.4-4.5h4v-1.5a2.6 2.6 0 0 0 -2.9-2.8c-1.8 0-2.8 1-2.9 2.3h-3.1c.2-2.6 1.9-4.8 6.1-4.8s6 1.7 6 5.2v10.5h-3.1v-1.9h-.1a4.8 4.8 0 0 1 -4.4 2.2zm4.4-5.4v-1.7h-3.4c-1.9 0-2.8.9-2.8 2.2a2.5 2.5 0 0 0 2.8 2.4c1.9 0 3.4-1.2 3.4-2.9z"/><path d="m231.1 727.5h-.1v7.3h-3.3v-20.7h3.2v2.3h.1a4.9 4.9 0 0 1 4.5-2.5c3.5 0 5.9 2.7 5.9 7.3v1.4c0 4.6-2.4 7.2-6 7.2a4.7 4.7 0 0 1 -4.3-2.3zm7-5.1v-1.1c0-3-1.3-4.7-3.5-4.7s-3.7 1.8-3.7 4.7v1.1c0 2.9 1.5 4.8 3.8 4.8s3.4-1.7 3.4-4.8z"/><path d="m258.1 721.2v1.3c0 4.3-2.4 7.4-6.9 7.4s-6.9-3.1-6.9-7.4v-1.3c0-4.2 2.5-7.3 6.9-7.3s6.9 3.1 6.9 7.3zm-10.5.1v1.2c0 2.7 1.2 4.8 3.6 4.8s3.6-2.1 3.6-4.8v-1.2c0-2.8-1.1-4.8-3.6-4.8s-3.6 2-3.6 4.8z"/><path d="m261.6 714.1h3.3v2.1h.1a3.8 3.8 0 0 1 3.7-2.3h1.1v2.9h-1.4c-2.6 0-3.5 1.6-3.5 3.7v9.1h-3.3z"/><path d="m271.7 722.6v-1.6c0-4.3 2.6-7.1 6.7-7.1s6.6 2.9 6.6 7.2v1.5h-10.1v.4c0 2.6 1.4 4.3 3.6 4.3a3 3 0 0 0 3.2-2.1h3.1c-.5 2.5-2.5 4.7-6.3 4.7s-6.8-2.7-6.8-7.3zm10.1-2.2c0-2.2-1.4-3.9-3.4-3.9s-3.5 1.7-3.5 3.9z"/><path d="m289.3 708.6c2.6 3.2 4 7 4 12.5s-1.6 10.2-3.9 13.1h-3a25.4 25.4 0 0 0 3.6-13.1c0-5.3-1.7-10.3-3.6-12.5z"/><path d="m411.2 81.1c12 0 17.8 7 17.8 19.9s-5.9 20-17.8 20h-13.7v-39.9zm-7.1 34.3h6.4c7.5 0 11.6-4.1 11.6-14.3s-3.4-14.5-11.6-14.5h-6.4z"/><path d="m451 120.6-.8 2.2c-2.6 6.8-6 9.1-12 9.1a19 19 0 0 1 -3.5-.3v-4.9h2.4c3.5 0 5.2-1.1 5.9-4.2l.4-1.3-11.1-31.1h7.2l7.4 24.6h.2l7.5-24.6h6.9c-1.3 4.3-10.5 30.4-10.5 30.5z"/><path d="m466.6 90.1h6.3v4.3h.3c1-2 3.9-4.8 9-4.8s10.8 4 10.8 11.5v19.9h-6.4v-18.5c0-5-2.9-7.2-6.8-7.2s-6.8 3.2-6.8 7.3v18.4h-6.4z"/><path d="m509.4 121.5c-6 0-10.2-3.6-10.2-9.4s3.8-9 11-9h7.8v-2.9c0-3.6-2.1-5.5-5.7-5.5s-5.6 1.8-5.8 4.6h-6.1c.2-5.3 3.8-9.7 12-9.7s12 3.4 12 10.3v21.1h-6.2v-3.8h-.2c-1.3 2.4-4.1 4.3-8.6 4.3zm8.6-10.7v-3.4h-6.7c-3.8 0-5.5 1.8-5.5 4.4s2.7 4.8 5.5 4.8 6.7-2.4 6.7-5.8z"/><path d="m532.4 90.1h6.4v4.1h.3c.9-2.2 3.6-4.6 8-4.6s7.7 2 8.8 5.2h.3c1.1-2.7 4.3-5.2 9.4-5.2s10.3 4.1 10.3 10.3v21.1h-6.5v-19.4c0-4-2.2-6.4-6-6.4s-6.1 2.6-6.1 6.7v19.1h-6.3v-19.1c0-4.6-2.4-6.7-6-6.7s-6.1 2.2-6.1 6.7v19.1h-6.5z"/><path d="m587.5 78.8a3.8 3.8 0 0 1 3.9 3.7 3.7 3.7 0 0 1 -3.9 3.7 3.7 3.7 0 0 1 -3.8-3.7 3.7 3.7 0 0 1 3.8-3.7zm-3.2 11.3h6.5v30.9h-6.5z"/><path d="m598.1 104c0-8.4 5-14.5 13.3-14.5s12.1 4.9 12.4 10.3h-6.2a5.9 5.9 0 0 0 -5.8-4.9c-4.5 0-7.2 3.6-7.2 9.3v2.6c0 5.7 2.8 9.4 7.2 9.4s5.6-2.1 6-4.5h6.1c-.8 6.2-5.3 9.9-12.5 9.9s-13.3-6.1-13.3-14.8z"/><path d="m649.2 121-10.8-39.9h7.2l6.9 29.7h.2l7.5-29.7h6.1l7.4 29.7h.3l6.8-29.7h7.2l-10.8 39.9h-6l-7.9-29.3h-.2l-7.9 29.3z"/><path d="m689.8 106.9v-3.1c0-8.7 5.2-14.3 13.3-14.3s13.3 5.8 13.3 14.6v2.9h-20.2v.8c0 5.2 2.9 8.6 7.3 8.6s5.6-1.6 6.3-4.3h6.2c-.9 5-5 9.5-12.6 9.5s-13.6-5.5-13.6-14.7zm20.2-4.4c0-4.4-2.7-7.8-6.8-7.8s-7 3.4-7 7.8z"/><path d="m730 116.3h-.3v4.7h-6.3v-42.1h6.5v15.6h.2c1.5-2.8 5-4.8 9-4.8 7.1 0 12 5 12 14.4v2.9c0 9.1-4.7 14.5-12 14.5-4.4 0-7.5-2-9.1-5.2zm14.5-9.6v-2.3c0-6.1-2.9-9.4-7-9.4s-7.7 3.3-7.7 9.4v2.3c0 6.1 3 9.4 7.7 9.4s7-3.3 7-9.4z"/><path d="m765 116.7h-.3v14.6h-6.5v-41.2h6.3v4.5h.3a10 10 0 0 1 9-4.9c6.9 0 11.9 5.2 11.9 14.5v2.7c0 9.2-4.9 14.6-12 14.6a9.5 9.5 0 0 1 -8.7-4.8zm14.1-10.1v-2.2c0-6-2.6-9.4-7.1-9.4s-7.3 3.7-7.3 9.4v2.2c0 5.8 2.8 9.5 7.5 9.5s6.9-3.3 6.9-9.5z"/><path d="m801.2 121.5c-6 0-10.1-3.6-10.1-9.4s3.8-9 10.9-9h7.9v-2.9c0-3.6-2.1-5.5-5.8-5.5s-5.5 1.8-5.8 4.6h-6.1c.3-5.3 3.8-9.7 12.1-9.7s12 3.4 12 10.3v21.1h-6.2v-3.8h-.2c-1.4 2.4-4.1 4.3-8.7 4.3zm8.7-10.7v-3.4h-6.8c-3.8 0-5.5 1.8-5.5 4.4s2.7 4.8 5.6 4.8 6.7-2.4 6.7-5.8z"/><path d="m844.2 120.3v-4.5h-.3c-1.2 2.7-4.5 4.9-8.8 4.9-7.1 0-12-5.1-12-14.5v-2.2c0-9.2 4.9-14.3 12-14.3 4.3 0 7.6 2.1 9 4.9h.2v-4.5h6.3v30.5c0 8.2-6.8 11.8-13.8 11.8s-12.5-4.1-13-9.2h6.4c.5 2.3 3 4.2 6.7 4.2s7.3-2.6 7.3-7.1zm-14.5-16v1.9c0 5.9 2.7 9.4 7.4 9.4s7.1-3.5 7.1-9.4v-1.9c0-5.8-2.8-9.3-7.1-9.3s-7.4 3.3-7.4 9.3z"/><path d="m857.7 106.9v-3.1c0-8.7 5.2-14.3 13.3-14.3s13.2 5.8 13.2 14.6v2.9h-20.1v.8c0 5.2 2.8 8.6 7.3 8.6s5.5-1.6 6.3-4.3h6.2c-.9 5-5 9.5-12.6 9.5s-13.6-5.5-13.6-14.7zm20.2-4.4c0-4.4-2.7-7.8-6.9-7.8s-6.9 3.4-6.9 7.8z"/></g><path d="m612.1 461.7v-246.1a19.4 19.4 0 0 0 -19.4-19.4h-370.9a19.5 19.5 0 0 0 -19.5 19.4v246.1h-25.9c2.3 17.6 14.5 31.1 29.1 31.1h401.4c14.7 0 26.8-13.5 29.1-31.1zm-387.5-243.3h365.3v243.3h-365.3z" fill="#ababab"/><circle cx="179.7" cy="362.5" fill="#404343" r="89.3"/><path d="m167.3 472h24.7a167.3 167.3 0 0 1 167.3 167.3v33.8a0 0 0 0 1 0 0h-359.3a0 0 0 0 1 0 0v-33.8a167.3 167.3 0 0 1 167.3-167.3z" fill="#404343"/><path d="m1185.9 235.2a11.5 11.5 0 0 0 -8.1-3.5h-255.1a11.4 11.4 0 0 0 -8.1 3.4 11.3 11.3 0 0 0 -3.4 8.1v202.5a11.6 11.6 0 0 0 11.4 11.5l255.2.2a11.4 11.4 0 0 0 8.1-3.4 11.9 11.9 0 0 0 3.4-8.1v-202.7a11.2 11.2 0 0 0 -3.4-8zm-7.7 210.7a.6.6 0 0 1 -.5.5h-255.1a.9.9 0 0 1 -.6-.6v-172.6h256.2zm-4.5-193.5a6.5 6.5 0 0 1 -6.5 6.5l-179.6-.2a6.5 6.5 0 1 1 0-12.9h179.6a6.5 6.5 0 0 1 6.5 6.6zm-205.3-.3a4.4 4.4 0 0 1 -4.4 4.4 4.4 4.4 0 1 1 0-8.8 4.4 4.4 0 0 1 4.4 4.4zm-13 0a4.4 4.4 0 0 1 -4.4 4.4 4.4 4.4 0 1 1 0-8.8 4.4 4.4 0 0 1 4.4 4.4zm-17.4-4.4a4.4 4.4 0 1 1 -4.4 4.4 4.4 4.4 0 0 1 4.4-4.4z" fill="#707071"/><path d="m959.3 326.6-5.3-20h3.5l3.5 14.9h.1l3.7-14.9h3.1l3.7 14.9h.2l3.4-14.9h3.6l-5.4 20h-3l-4-14.7h-.1l-3.9 14.7z" fill="#404343"/><path d="m979.7 319.6v-1.6c0-4.3 2.6-7.1 6.6-7.1s6.6 2.9 6.6 7.3v1.4h-10v.4c0 2.6 1.4 4.3 3.6 4.3a3 3 0 0 0 3.2-2.1h3.1c-.5 2.5-2.5 4.7-6.3 4.7s-6.8-2.7-6.8-7.3zm10.1-2.2c0-2.2-1.4-3.9-3.5-3.9s-3.4 1.7-3.4 3.9z" fill="#404343"/><path d="m996.5 305.6h3.3v21h-3.3z" fill="#404343"/><path d="m1003.4 318.1c0-4.2 2.5-7.2 6.6-7.2s6.1 2.4 6.2 5.1h-3.1a2.8 2.8 0 0 0 -2.9-2.4c-2.2 0-3.6 1.7-3.6 4.6v1.3c0 2.9 1.4 4.7 3.6 4.7a2.7 2.7 0 0 0 3-2.2h3.1c-.4 3.1-2.7 4.9-6.3 4.9s-6.6-3-6.6-7.4z" fill="#404343"/><path d="m1032.6 318.2v1.3c0 4.4-2.4 7.4-6.8 7.4s-6.9-3-6.9-7.4v-1.3c0-4.2 2.4-7.3 6.9-7.3s6.8 3.1 6.8 7.3zm-10.4.1v1.2c0 2.7 1.1 4.8 3.6 4.8s3.6-2 3.6-4.8v-1.2c0-2.8-1.2-4.8-3.6-4.8s-3.6 2-3.6 4.8z" fill="#404343"/><path d="m1036.2 311.2h3.2v2h.1a4.2 4.2 0 0 1 4-2.3c2.4 0 3.8 1 4.4 2.6h.1a5 5 0 0 1 4.8-2.6c3.2 0 5.1 2.1 5.1 5.2v10.5h-3.3v-9.7c0-2-1.1-3.2-2.9-3.2s-3.1 1.3-3.1 3.4v9.5h-3.2v-9.5c0-2.3-1.2-3.4-3-3.4s-3 1.1-3 3.4v9.5h-3.2z" fill="#404343"/><path d="m1061.3 319.6v-1.6c0-4.3 2.6-7.1 6.7-7.1s6.6 2.9 6.6 7.3v1.4h-10.1v.4c0 2.6 1.4 4.3 3.6 4.3a3 3 0 0 0 3.2-2.1h3.1c-.5 2.5-2.5 4.7-6.3 4.7s-6.8-2.7-6.8-7.3zm10.1-2.2c0-2.2-1.4-3.9-3.4-3.9s-3.5 1.7-3.5 3.9z" fill="#404343"/><path d="m1076.7 330.9 1.1-7.3h3.1l-1.8 7.3z" fill="#404343"/><path d="m1090.6 306.6h8c3.5 0 5.7 1.9 5.7 5a4.3 4.3 0 0 1 -3.3 4.4 4.6 4.6 0 0 1 4.4 4.9c0 3.6-2.8 5.6-6.9 5.6h-7.9zm3.3 8.5h2.9c2.9 0 4.3-1 4.3-3s-1.2-2.8-3.2-2.8h-4zm0 8.9h3.2c3.5 0 4.9-1 4.9-3.1s-1.3-3.3-3.8-3.3h-4.3z" fill="#404343"/><path d="m1121.8 318.2v1.3c0 4.4-2.4 7.4-6.9 7.4s-6.9-3-6.9-7.4v-1.3c0-4.2 2.5-7.3 6.9-7.3s6.9 3.1 6.9 7.3zm-10.5.1v1.2c0 2.7 1.2 4.8 3.6 4.8s3.6-2 3.6-4.8v-1.2c0-2.8-1.2-4.8-3.6-4.8s-3.6 2-3.6 4.8z" fill="#404343"/><path d="m1128.7 324.3h-.2v2.3h-3.1v-21h3.2v7.8h.1a5.1 5.1 0 0 1 4.5-2.4c3.6 0 6 2.5 6 7.2v1.4c0 4.6-2.3 7.3-6 7.3a4.7 4.7 0 0 1 -4.5-2.6zm7.2-4.8v-1.2c0-3-1.4-4.7-3.5-4.7s-3.8 1.7-3.8 4.7v1.1c0 3.1 1.4 4.8 3.8 4.8s3.5-1.7 3.5-4.7z" fill="#404343"/><path d="m1144.6 323.2a1.9 1.9 0 1 1 -2 1.8 1.9 1.9 0 0 1 2-1.8zm1.8-16.6-.4 14h-2.8l-.4-14z" fill="#404343"/><path d="m937.4 362.6v-20h3.3v20z" fill="#404343"/><path d="m946.1 343.4h3.2v3.8h3v2.6h-3v8.2c0 1.7.6 2.2 2.4 2.2h.7v2.5h-1.5c-3.8 0-4.8-1.3-4.8-4.4v-8.5h-2.2v-2.6h2.2z" fill="#404343"/><path d="m963.4 341.5a1.8 1.8 0 0 1 1.9 1.9 1.8 1.8 0 0 1 -1.9 1.8 1.9 1.9 0 1 1 0-3.7zm-1.6 5.7h3.2v15.4h-3.2z" fill="#404343"/><path d="m974.7 346.9c3.7 0 5.8 2 5.8 4.7h-3c-.1-1.1-.7-2.3-2.9-2.3s-2.7.8-2.7 2.1 2.1 1.9 3.9 2.2 5.1 1.4 5.1 4.4-2.5 4.9-6.4 4.9-6.1-1.8-6.1-4.5h3.2c.2 1.2 1.3 2.1 3.1 2.1s3-1 3-2.1-1.8-1.9-3.8-2.3-5.2-1.6-5.2-4.4 2.9-4.8 6-4.8z" fill="#404343"/><path d="m1002.1 342.6v13.4h2.5v2.7h-2.5v3.9h-3.2v-3.9h-9.7v-2.7c2.4-4.5 5.3-9 8.1-13.4zm-3.2 13.4v-10.7h-.1c-2.2 3.3-4.5 7.1-6.5 10.6h6.6z" fill="#404343"/><path d="m1006.9 348.4c0-3.3 2.5-6.1 6.7-6.1s6.5 2.4 6.5 5.6-1.3 4-3.5 6.3l-4.9 5.7h8.8v2.7h-13.4v-2l7.4-8.3c1.2-1.3 2.3-2.6 2.3-4.2a3 3 0 0 0 -3.3-3.1 3.2 3.2 0 0 0 -3.4 3.2v.2z" fill="#404343"/><path d="m1039.8 349.4h.1v-7.8h3.2v21h-3.1v-2.3h-.2a4.6 4.6 0 0 1 -4.5 2.5c-3.8 0-6-2.8-6-7.2v-1.4c0-4.3 2.3-7.2 6-7.2a5 5 0 0 1 4.5 2.4zm-7.2 4.9v1.2c0 3.1 1.5 4.7 3.6 4.7s3.7-1.7 3.7-4.7v-1.2c0-2.9-1.4-4.7-3.7-4.7s-3.6 1.6-3.6 4.7z" fill="#404343"/><path d="m1046.7 355.6v-1.6c0-4.3 2.6-7.1 6.6-7.1s6.7 2.9 6.7 7.3v1.4h-10.1v.4c0 2.6 1.4 4.3 3.6 4.3a3 3 0 0 0 3.2-2.1h3.1c-.5 2.5-2.5 4.7-6.3 4.7s-6.8-2.7-6.8-7.3zm10.1-2.2c0-2.2-1.4-3.9-3.4-3.9s-3.5 1.7-3.5 3.9z" fill="#404343"/><path d="m1073.4 362.3v-2.3h-.2a4.6 4.6 0 0 1 -4.4 2.5c-3.5 0-6-2.6-6-7.3v-1.1c0-4.6 2.5-7.1 6-7.1a4.8 4.8 0 0 1 4.5 2.4h.1v-2.2h3.2v15.2c0 4.1-3.4 5.9-6.9 5.9s-6.3-2-6.5-4.6h3.2c.2 1.2 1.5 2.1 3.3 2.1s3.7-1.3 3.7-3.5zm-7.3-8v.9c0 3 1.4 4.7 3.7 4.7s3.6-1.7 3.6-4.7v-.9c0-2.9-1.4-4.7-3.6-4.7s-3.7 1.7-3.7 4.7z" fill="#404343"/><path d="m1080.8 347.2h3.2v2h.1a3.9 3.9 0 0 1 3.7-2.3h1.1v2.9h-1.4c-2.6 0-3.4 1.6-3.4 3.7v9.1h-3.3z" fill="#404343"/><path d="m1090.8 355.6v-1.6c0-4.3 2.6-7.1 6.7-7.1s6.6 2.9 6.6 7.3v1.4h-10.1v.4c0 2.6 1.5 4.3 3.7 4.3a3 3 0 0 0 3.1-2.1h3.1c-.4 2.5-2.5 4.7-6.3 4.7s-6.8-2.7-6.8-7.3zm10.1-2.2c0-2.2-1.3-3.9-3.4-3.9s-3.5 1.7-3.5 3.9z" fill="#404343"/><path d="m1106.9 355.6v-1.6c0-4.3 2.6-7.1 6.7-7.1s6.6 2.9 6.6 7.3v1.4h-10.1v.4c0 2.6 1.4 4.3 3.7 4.3a3 3 0 0 0 3.1-2.1h3.1c-.4 2.5-2.5 4.7-6.3 4.7s-6.8-2.7-6.8-7.3zm10.1-2.2c0-2.2-1.3-3.9-3.4-3.9s-3.5 1.7-3.5 3.9z" fill="#404343"/><path d="m1129.1 346.9c3.6 0 5.7 2 5.7 4.7h-2.9c-.1-1.1-.8-2.3-2.9-2.3s-2.8.8-2.8 2.1 2.2 1.9 3.9 2.2 5.1 1.4 5.1 4.4-2.4 4.9-6.3 4.9-6.1-1.8-6.1-4.5h3.2c.1 1.2 1.2 2.1 3.1 2.1s3-1 3-2.1-1.8-1.9-3.9-2.3-5.1-1.6-5.1-4.4 2.8-4.8 6-4.8z" fill="#404343"/><path d="m1146.2 341.5a1.9 1.9 0 1 1 0 3.7 1.9 1.9 0 1 1 0-3.7zm-1.6 5.7h3.3v15.4h-3.3z" fill="#404343"/><path d="m1152.1 347.2h3.2v2.1h.2a4.8 4.8 0 0 1 4.4-2.4c3.2 0 5.5 2 5.5 5.8v9.9h-3.3v-9.2c0-2.5-1.4-3.7-3.3-3.7s-3.4 1.7-3.4 3.7v9.2h-3.3z" fill="#404343"/><path d="m1015.7 398.6h-12.2v-20h3.4v17.2h8.8z" fill="#404343"/><path d="m1031.2 390.2v1.3c0 4.4-2.4 7.4-6.8 7.4s-6.9-3-6.9-7.4v-1.3c0-4.2 2.4-7.3 6.9-7.3s6.8 3.1 6.8 7.3zm-10.5.1v1.2c0 2.7 1.2 4.8 3.7 4.8s3.6-2 3.6-4.8v-1.2c0-2.8-1.2-4.8-3.6-4.8s-3.7 2-3.7 4.8z" fill="#404343"/><path d="m1034.7 383.2h3.2v2.1h.2a4.8 4.8 0 0 1 4.5-2.4c3.1 0 5.4 2 5.4 5.8v9.9h-3.2v-9.2c0-2.5-1.5-3.7-3.4-3.7s-3.4 1.7-3.4 3.7v9.2h-3.3z" fill="#404343"/><path d="m1061.8 385.4h.1v-7.8h3.2v21h-3.1v-2.3h-.2a4.6 4.6 0 0 1 -4.5 2.5c-3.8 0-6-2.8-6-7.2v-1.4c0-4.3 2.3-7.2 6-7.2a5 5 0 0 1 4.5 2.4zm-7.2 4.9v1.2c0 3.1 1.5 4.7 3.6 4.7s3.7-1.7 3.7-4.7v-1.2c0-2.9-1.4-4.7-3.7-4.7s-3.6 1.6-3.6 4.7z" fill="#404343"/><path d="m1082.5 390.2v1.3c0 4.4-2.4 7.4-6.9 7.4s-6.9-3-6.9-7.4v-1.3c0-4.2 2.4-7.3 6.9-7.3s6.9 3.1 6.9 7.3zm-10.5.1v1.2c0 2.7 1.2 4.8 3.6 4.8s3.6-2 3.6-4.8v-1.2c0-2.8-1.2-4.8-3.6-4.8s-3.6 2-3.6 4.8z" fill="#404343"/><path d="m1086 383.2h3.2v2.1h.1a4.8 4.8 0 0 1 4.5-2.4c3.1 0 5.4 2 5.4 5.8v9.9h-3.2v-9.2c0-2.5-1.5-3.7-3.4-3.7s-3.4 1.7-3.4 3.7v9.2h-3.2z" fill="#404343"/><path d="m737.3 709.6h8c3.4 0 5.7 1.9 5.7 5a4.2 4.2 0 0 1 -3.3 4.3v.2a4.7 4.7 0 0 1 4.4 4.9c0 3.5-2.8 5.6-7 5.6h-7.8zm3.3 8.5h2.8c3 0 4.3-1 4.3-3s-1.1-2.8-3.1-2.8h-4zm0 8.9h3.2c3.5 0 4.9-1 4.9-3.1s-1.4-3.3-3.9-3.3h-4.2z" fill="#404343"/><path d="m768.5 721.2v1.3c0 4.3-2.5 7.4-6.9 7.4s-6.9-3.1-6.9-7.4v-1.3c0-4.2 2.4-7.3 6.9-7.3s6.9 3.1 6.9 7.3zm-10.5.1v1.2c0 2.7 1.1 4.8 3.6 4.8s3.6-2.1 3.6-4.8v-1.2c0-2.8-1.2-4.8-3.6-4.8s-3.6 2-3.6 4.8z" fill="#404343"/><path d="m775.3 727.3h-.1v2.3h-3.2v-21h3.3v7.7h.1a5 5 0 0 1 4.5-2.4c3.5 0 6 2.6 6 7.3v1.4c0 4.6-2.4 7.2-6 7.2s-3.8-.9-4.6-2.5zm7.3-4.8v-1.2c0-3-1.5-4.7-3.5-4.7s-3.9 1.6-3.9 4.7v1.1c0 3.1 1.5 4.8 3.9 4.8s3.5-1.7 3.5-4.7z" fill="#404343"/><path d="m803 708.6c-1.9 2.2-3.6 7.2-3.6 12.5a25.4 25.4 0 0 0 3.6 13.1h-3c-2.3-2.9-3.9-7.5-3.9-13.1s1.4-9.3 4-12.5z" fill="#404343"/><path d="m817.9 729.6h-12.1v-20h3.3v17.1h8.8z" fill="#404343"/><path d="m833.5 721.2v1.3c0 4.3-2.4 7.4-6.9 7.4s-6.9-3.1-6.9-7.4v-1.3c0-4.2 2.5-7.3 6.9-7.3s6.9 3.1 6.9 7.3zm-10.5.1v1.2c0 2.7 1.2 4.8 3.6 4.8s3.6-2.1 3.6-4.8v-1.2c0-2.8-1.2-4.8-3.6-4.8s-3.6 2-3.6 4.8z" fill="#404343"/><path d="m837 714.1h3.2v2.2h.1a4.9 4.9 0 0 1 4.5-2.4c3.2 0 5.4 2 5.4 5.8v9.9h-3.2v-9.3c0-2.5-1.4-3.6-3.4-3.6a3.4 3.4 0 0 0 -3.4 3.7v9.2h-3.2z" fill="#404343"/><path d="m864 716.4h.1v-7.8h3.3v21h-3.2v-2.3h-.1a4.7 4.7 0 0 1 -4.5 2.5c-3.9 0-6-2.8-6-7.2v-1.4c0-4.3 2.2-7.3 6-7.3a4.6 4.6 0 0 1 4.4 2.5zm-7.1 4.9v1.2c0 3.1 1.5 4.7 3.6 4.7s3.7-1.7 3.7-4.7v-1.2c0-2.9-1.5-4.7-3.8-4.7s-3.5 1.6-3.5 4.7z" fill="#404343"/><path d="m884.7 721.2v1.3c0 4.3-2.4 7.4-6.9 7.4s-6.9-3.1-6.9-7.4v-1.3c0-4.2 2.5-7.3 6.9-7.3s6.9 3.1 6.9 7.3zm-10.5.1v1.2c0 2.7 1.2 4.8 3.6 4.8s3.6-2.1 3.6-4.8v-1.2c0-2.8-1.1-4.8-3.6-4.8s-3.6 2-3.6 4.8z" fill="#404343"/><path d="m888.2 714.1h3.2v2.2h.1a5.1 5.1 0 0 1 4.5-2.4c3.2 0 5.5 2 5.5 5.8v9.9h-3.3v-9.3c0-2.5-1.4-3.6-3.3-3.6s-3.4 1.7-3.4 3.7v9.2h-3.3z" fill="#404343"/><path d="m906.7 708.6c2.7 3.2 4.1 7 4.1 12.5s-1.6 10.2-3.9 13.1h-3a25.4 25.4 0 0 0 3.6-13.1c0-5.3-1.7-10.3-3.6-12.5z" fill="#404343"/><path d="m1256.1 461.7v-246.1a19.4 19.4 0 0 0 -19.4-19.4h-371a19.4 19.4 0 0 0 -19.4 19.4v246.1h-25.9c2.3 17.6 14.4 31.1 29.1 31.1h401.4c14.6 0 26.8-13.5 29.1-31.1zm-387.6-243.3h365.4v243.3h-365.4z" fill="#ababab"/><circle cx="821.4" cy="362.5" fill="#404343" r="89.3"/><path d="m809 472h24.7a167.3 167.3 0 0 1 167.3 167.3v33.8a0 0 0 0 1 0 0h-359.3a0 0 0 0 1 0 0v-33.8a167.3 167.3 0 0 1 167.3-167.3z" fill="#404343"/></svg>